<svg width="196" height="133" viewBox="0 0 196 133" fill="none" xmlns="http://www.w3.org/2000/svg">
<path d="M30.9927 119.623L31.7049 119.524C32.5513 119.408 33.3056 119.41 33.968 119.531C34.6303 119.651 35.1883 119.88 35.6418 120.215C36.0954 120.551 36.4347 120.982 36.6599 121.51C36.8853 122.032 36.9841 122.639 36.9563 123.331C36.9293 124.002 36.7807 124.635 36.5105 125.231C36.2404 125.821 35.8623 126.354 35.3762 126.83C34.8902 127.3 34.3073 127.693 33.6274 128.009C32.9475 128.325 32.1844 128.542 31.338 128.658L30.6258 128.757C29.7795 128.873 29.0278 128.868 28.3708 128.742C27.7089 128.611 27.1513 128.375 26.6979 128.034C26.2394 127.694 25.8975 127.262 25.6721 126.74C25.4469 126.213 25.3478 125.613 25.3748 124.943C25.4025 124.251 25.5515 123.61 25.8215 123.019C26.0918 122.424 26.4724 121.893 26.9633 121.427C27.4492 120.957 28.0319 120.569 28.7114 120.263C29.3859 119.953 30.1463 119.739 30.9927 119.623ZM31.6451 121.014L30.9174 121.115C30.2465 121.207 29.6502 121.359 29.1284 121.571C28.6069 121.777 28.1654 122.037 27.8038 122.351C27.4422 122.664 27.1634 123.026 26.9673 123.435C26.7714 123.84 26.6638 124.284 26.6443 124.768C26.6255 125.236 26.6988 125.647 26.8642 126.002C27.0298 126.351 27.2826 126.637 27.6227 126.859C27.963 127.076 28.3883 127.222 28.8985 127.296C29.4087 127.37 29.9993 127.361 30.6702 127.269L31.3979 127.169C32.0739 127.075 32.6755 126.92 33.2026 126.703C33.7245 126.486 34.169 126.218 34.5359 125.898C34.898 125.574 35.1768 125.213 35.3725 124.813C35.5683 124.409 35.6757 123.973 35.6945 123.505C35.7141 123.016 35.6412 122.594 35.4758 122.239C35.3105 121.885 35.0575 121.601 34.717 121.39C34.3716 121.174 33.9435 121.034 33.4329 120.97C32.9171 120.906 32.3211 120.921 31.6451 121.014Z" fill="#344455"/>
<path d="M36.2739 108.069L29.7697 108.053L30.0512 106.629L38.5099 106.649L38.242 108.004L36.2739 108.069ZM34.5445 107.796L34.6454 107.207C35.2083 107.208 35.7179 107.268 36.1741 107.387C36.6262 107.5 37.0016 107.685 37.3003 107.941C37.5991 108.197 37.8066 108.532 37.9229 108.946C38.034 109.359 38.031 109.862 37.9139 110.454C37.8342 110.858 37.7011 111.227 37.5146 111.564C37.3291 111.895 37.0876 112.181 36.79 112.42C36.4924 112.659 36.1298 112.845 35.7023 112.977C35.2758 113.103 34.7811 113.166 34.2182 113.164L28.7615 113.151L29.0415 111.735L34.5139 111.748C34.8943 111.749 35.2177 111.709 35.484 111.628C35.7461 111.542 35.9643 111.427 36.1385 111.285C36.3085 111.137 36.4398 110.974 36.5324 110.796C36.6261 110.612 36.6921 110.423 36.7304 110.229C36.8495 109.627 36.8266 109.15 36.6617 108.797C36.4916 108.444 36.2211 108.191 35.85 108.037C35.4748 107.878 35.0396 107.797 34.5445 107.796Z" fill="#344455"/>
<path d="M34.6961 96.4895L41.7487 97.5537L41.2653 98.9136L32.8981 97.651L33.3684 96.3278L34.6961 96.4895ZM34.2182 93.7995L35.5457 94.0075C35.4799 94.1163 35.4261 94.2218 35.3844 94.324C35.3392 94.4204 35.294 94.5323 35.2487 94.6598C35.1372 94.9734 35.0904 95.2581 35.1081 95.5138C35.1259 95.7695 35.1979 95.9946 35.3243 96.1892C35.4507 96.3839 35.6253 96.5496 35.8482 96.6866C36.0678 96.8178 36.3244 96.9211 36.6181 96.9964L36.7142 97.4136C36.209 97.3374 35.7512 97.2192 35.341 97.0592C34.9324 96.8943 34.5938 96.6857 34.3249 96.4334C34.0509 96.1804 33.8734 95.8851 33.7924 95.5476C33.708 95.2044 33.7424 94.8172 33.8957 94.3859C33.9306 94.2879 33.9835 94.1771 34.0546 94.0536C34.1205 93.9293 34.1751 93.8446 34.2182 93.7995Z" fill="#344455"/>
<path d="M45.7915 67.1003L52.8827 74.8911L51.9997 76.1488L44.3364 67.4337L44.9056 66.6229L45.7915 67.1003ZM56.8536 69.2346L45.4374 67.6047L44.5246 67.1656L45.0938 66.3548L57.741 67.9706L56.8536 69.2346ZM52.9838 67.4797L54.0854 68.0409L50.4192 73.2632L49.3176 72.702L52.9838 67.4797Z" fill="#344455"/>
<path d="M63.0159 58.3927L54.7217 52.1594L55.6995 51.0873L65.3072 58.3078L64.4135 59.2877L63.0159 58.3927ZM57.1935 61.0892L57.0622 60.9905C56.5451 60.6019 56.1285 60.1917 55.8125 59.7599C55.4958 59.3211 55.2834 58.8798 55.1752 58.4358C55.0706 57.988 55.0736 57.5531 55.1843 57.1312C55.2944 56.7023 55.5194 56.3015 55.8593 55.9287C56.2168 55.5368 56.6038 55.2512 57.0202 55.072C57.436 54.8858 57.8786 54.7974 58.3479 54.8069C58.8165 54.8094 59.3032 54.8999 59.808 55.0785C60.3128 55.2571 60.8365 55.5114 61.3789 55.8413L61.9544 56.2738C62.412 56.689 62.7829 57.1069 63.0669 57.5276C63.3544 57.9445 63.5432 58.3616 63.6334 58.7791C63.727 59.1927 63.714 59.6039 63.5942 60.0126C63.4703 60.4181 63.2279 60.8188 62.8669 61.2146C62.534 61.5796 62.1436 61.8497 61.6958 62.0248C61.2515 62.196 60.7751 62.2752 60.2668 62.2623C59.762 62.2456 59.2467 62.1401 58.7211 61.9458C58.1948 61.7446 57.6856 61.459 57.1935 61.0892ZM58.0399 59.9184L58.1713 60.0172C58.5091 60.271 58.854 60.4784 59.2062 60.6395C59.5618 60.7966 59.9136 60.8926 60.2614 60.9273C60.6092 60.9621 60.9424 60.9243 61.2609 60.8139C61.5753 60.7005 61.8639 60.4996 62.1267 60.2114C62.4491 59.8579 62.6324 59.5067 62.6766 59.1578C62.7242 58.805 62.6777 58.4591 62.537 58.1202C62.3962 57.7813 62.2045 57.4559 61.9619 57.144L60.4544 56.0111C60.183 55.8849 59.9007 55.786 59.6074 55.7146C59.3135 55.6362 59.02 55.6034 58.7271 55.6164C58.4334 55.6224 58.1455 55.6877 57.8631 55.8123C57.5843 55.9331 57.3223 56.1279 57.0769 56.3969C56.8106 56.689 56.6478 56.9908 56.5884 57.3024C56.5285 57.6071 56.5518 57.9128 56.6585 58.2197C56.761 58.5234 56.9326 58.8207 57.1733 59.1117C57.4133 59.3957 57.7022 59.6646 58.0399 59.9184Z" fill="#344455"/>
<path d="M72.724 49.8046L69.6153 43.0533L70.7365 42.0954L74.1813 50.2765L73.4457 50.9049L72.724 49.8046ZM66.3942 45.8053L73.0946 49.5393L74.0805 50.3626L73.3449 50.9911L65.2671 46.7683L66.3942 45.8053Z" fill="#344455"/>
<path d="M86.7483 39.2531L84.4142 35.5753C84.2354 35.2936 84.024 35.0866 83.7798 34.9543C83.5372 34.8147 83.2689 34.7608 82.9749 34.7927C82.6808 34.8245 82.371 34.948 82.0455 35.1631C81.7416 35.3639 81.5082 35.5931 81.3452 35.8508C81.1865 36.1056 81.0965 36.3618 81.0752 36.6195C81.0583 36.8744 81.1127 37.1009 81.2384 37.2989L80.0338 38.0949C79.8718 37.8396 79.7763 37.5435 79.7472 37.2065C79.7182 36.8695 79.761 36.5195 79.8756 36.1564C79.9917 35.786 80.1836 35.4281 80.4511 35.0827C80.7201 34.7299 81.0673 34.413 81.4927 34.1319C82.005 33.7935 82.5123 33.5832 83.0147 33.5012C83.5215 33.4162 83.9987 33.4789 84.4463 33.6891C84.8956 33.8921 85.2892 34.26 85.6272 34.7926L87.7392 38.1204C87.89 38.3581 88.0702 38.5983 88.2797 38.841C88.4935 39.0808 88.7031 39.2703 88.9085 39.4095L88.9755 39.5152L87.7188 40.3455C87.5687 40.2448 87.4022 40.0893 87.2194 39.879C87.0338 39.6642 86.8768 39.4556 86.7483 39.2531ZM84.983 36.0055L85.5407 36.8553L84.3231 37.6598C83.9802 37.8864 83.6923 38.1172 83.4595 38.3523C83.2239 38.5829 83.0499 38.8135 82.9374 39.044C82.8249 39.2746 82.774 39.505 82.7846 39.7354C82.7925 39.9613 82.8663 40.1844 83.006 40.4045C83.1484 40.629 83.3283 40.8007 83.5454 40.9196C83.7626 41.0385 84.0059 41.087 84.2755 41.0651C84.5465 41.0359 84.8297 40.9238 85.1248 40.7288C85.4938 40.485 85.7691 40.1906 85.9507 39.8457C86.1323 39.5008 86.2329 39.1594 86.2526 38.8215C86.2766 38.4808 86.2267 38.1982 86.1028 37.9739L86.9902 38.2217C87.0771 38.4266 87.1245 38.6858 87.1324 38.9992C87.1403 39.3127 87.0971 39.6474 87.0027 40.0034C86.9098 40.3522 86.7525 40.6966 86.5309 41.0367C86.3109 41.3696 86.0099 41.6622 85.6279 41.9146C85.1504 42.2301 84.6714 42.4123 84.191 42.4611C83.7149 42.507 83.2765 42.4374 82.8757 42.2524C82.4764 42.0602 82.151 41.766 81.8996 41.3698C81.6566 40.9868 81.5167 40.6013 81.4799 40.2133C81.4403 39.8208 81.498 39.436 81.6528 39.0587C81.805 38.6771 82.0442 38.3066 82.3706 37.9472C82.6971 37.5878 83.1012 37.2489 83.583 36.9305L84.983 36.0055Z" fill="#344455"/>
<path d="M94.7011 28.6737L97.1992 34.8386L95.9052 35.4801L92.729 27.6418L93.9531 27.035L94.7011 28.6737ZM95.183 30.775L94.6356 31.0203C94.423 30.4819 94.2994 29.9487 94.2646 29.4208C94.2279 28.888 94.2763 28.3855 94.4098 27.9134C94.5433 27.4412 94.7593 27.0209 95.058 26.6525C95.3594 26.2769 95.7386 25.9758 96.1955 25.7493C96.5686 25.5644 96.9259 25.4511 97.2673 25.4094C97.6069 25.3628 97.9275 25.4011 98.2294 25.524C98.5358 25.6447 98.8184 25.8584 99.0771 26.1651C99.3338 26.467 99.5669 26.8764 99.7763 27.3931L101.858 32.5293L100.557 33.1743L98.4694 28.0236C98.3031 27.6131 98.1117 27.3135 97.8954 27.125C97.677 26.9317 97.4334 26.8349 97.1646 26.8348C96.8938 26.8299 96.5952 26.9083 96.2688 27.0701C95.947 27.2296 95.6816 27.4453 95.4726 27.7171C95.2682 27.9866 95.1204 28.2919 95.029 28.633C94.9423 28.9718 94.9099 29.3271 94.9318 29.699C94.9564 30.0638 95.0401 30.4225 95.183 30.775Z" fill="#344455"/>
<path d="M112.221 20.3826L112.451 21.4677L108.135 22.9664L107.905 21.8812L112.221 20.3826ZM108.939 19.3642L110.304 18.8903L112.051 27.1206C112.111 27.4008 112.197 27.5977 112.311 27.7113C112.425 27.8249 112.553 27.8816 112.696 27.8813C112.838 27.8811 112.986 27.8545 113.138 27.8015C113.252 27.7622 113.367 27.7111 113.486 27.648C113.609 27.5781 113.7 27.5244 113.761 27.4869L114.013 28.6383C113.913 28.7115 113.777 28.7942 113.606 28.8862C113.442 28.9817 113.237 29.0721 112.991 29.1575C112.656 29.2736 112.334 29.3116 112.025 29.2714C111.715 29.2312 111.443 29.0796 111.207 28.8167C110.976 28.547 110.802 28.1371 110.685 27.5869L108.939 19.3642Z" fill="#344455"/>
<path d="M127.997 23.2445L127.819 18.8989C127.806 18.566 127.728 18.2911 127.585 18.0741C127.447 17.8508 127.246 17.6985 126.98 17.6171C126.714 17.5357 126.39 17.5346 126.008 17.6138C125.651 17.6877 125.34 17.8151 125.074 17.9958C124.814 18.1756 124.612 18.3827 124.467 18.6172C124.327 18.8507 124.262 19.0844 124.272 19.3185L122.857 19.6114C122.844 19.3098 122.909 18.9949 123.05 18.6667C123.19 18.3386 123.399 18.0253 123.675 17.727C123.955 17.4223 124.294 17.1581 124.692 16.9343C125.094 16.7042 125.545 16.5374 126.044 16.4339C126.646 16.3094 127.181 16.3036 127.649 16.4166C128.121 16.5286 128.496 16.7683 128.773 17.1358C129.056 17.497 129.21 17.9922 129.235 18.6216L129.396 22.5536C129.407 22.8345 129.443 23.1288 129.501 23.4366C129.565 23.7433 129.65 24.0011 129.757 24.2098L129.762 24.3347L128.285 24.6403C128.207 24.4886 128.142 24.2792 128.09 24.012C128.038 23.7396 128.007 23.4837 127.997 23.2445ZM128.092 19.5192L128.148 20.5303L126.718 20.8264C126.315 20.9098 125.956 21.018 125.643 21.1511C125.329 21.279 125.068 21.4301 124.859 21.6044C124.65 21.7788 124.494 21.9764 124.39 22.1973C124.285 22.413 124.238 22.6508 124.249 22.9109C124.26 23.1762 124.328 23.4059 124.455 23.6C124.581 23.7942 124.764 23.932 125.004 24.0135C125.249 24.0887 125.544 24.0904 125.891 24.0186C126.325 23.9289 126.703 23.7561 127.027 23.5002C127.351 23.2444 127.605 22.9611 127.787 22.6506C127.975 22.3389 128.072 22.0541 128.077 21.7961L128.709 22.3653C128.682 22.5912 128.595 22.8531 128.448 23.1511C128.301 23.449 128.1 23.7477 127.844 24.0471C127.594 24.3402 127.291 24.6048 126.936 24.841C126.585 25.0709 126.185 25.2324 125.736 25.3253C125.175 25.4414 124.678 25.4314 124.246 25.2954C123.819 25.1583 123.48 24.9268 123.23 24.6009C122.985 24.2687 122.853 23.8686 122.834 23.4005C122.815 22.948 122.886 22.5321 123.045 22.153C123.204 21.7686 123.443 21.4282 123.76 21.1318C124.077 20.8302 124.462 20.572 124.916 20.3574C125.37 20.1428 125.881 19.9769 126.447 19.8597L128.092 19.5192Z" fill="#344455"/>
<path d="M143.289 15.2502L144.599 15.1607L143.619 23.3678C143.531 24.1066 143.305 24.7472 142.941 25.2897C142.577 25.8321 142.109 26.2561 141.536 26.5617C140.968 26.8721 140.333 27.0513 139.631 27.0992C139.34 27.1191 139.002 27.096 138.618 27.03C138.239 26.9688 137.872 26.8427 137.519 26.6516C137.17 26.4653 136.89 26.2001 136.678 25.8558L137.536 24.9517C137.839 25.3512 138.173 25.6204 138.538 25.7595C138.908 25.8982 139.283 25.9546 139.662 25.9287C140.12 25.8974 140.525 25.7852 140.878 25.592C141.231 25.3987 141.519 25.128 141.741 24.7797C141.968 24.4363 142.11 24.0218 142.168 23.5361L142.936 17.1037L143.289 15.2502ZM136.967 19.9327L136.987 19.7699C137.063 19.1293 137.208 18.5429 137.421 18.0108C137.64 17.4731 137.915 17.006 138.246 16.6093C138.582 16.2122 138.968 15.8989 139.402 15.6694C139.838 15.4347 140.313 15.2997 140.827 15.2646C141.358 15.2284 141.809 15.2898 142.182 15.4488C142.561 15.6023 142.867 15.8452 143.1 16.1778C143.34 16.5047 143.511 16.9081 143.613 17.388C143.716 17.8678 143.761 18.4155 143.75 19.0313L143.665 19.7443C143.534 20.363 143.356 20.9234 143.131 21.4256C142.912 21.9275 142.641 22.361 142.319 22.7264C142.002 23.0914 141.632 23.3805 141.21 23.5939C140.788 23.802 140.309 23.9244 139.774 23.961C139.269 23.9954 138.825 23.9208 138.439 23.737C138.059 23.5528 137.746 23.2796 137.501 22.9171C137.255 22.5547 137.085 22.1205 136.991 21.6144C136.903 21.1029 136.895 20.5423 136.967 19.9327ZM138.43 19.6714L138.41 19.8341C138.36 20.2526 138.355 20.6424 138.394 21.0036C138.439 21.3644 138.533 21.6782 138.676 21.9452C138.825 22.2117 139.03 22.4155 139.292 22.5565C139.554 22.6923 139.88 22.7469 140.27 22.7203C140.748 22.6876 141.155 22.5599 141.491 22.3371C141.827 22.1143 142.106 21.8313 142.327 21.4882C142.554 21.1448 142.742 20.7758 142.893 20.3812L143.116 18.5135C143.092 18.2332 143.037 17.9654 142.948 17.7101C142.866 17.4492 142.744 17.2219 142.581 17.028C142.425 16.8286 142.219 16.6761 141.963 16.5706C141.708 16.4651 141.398 16.4247 141.034 16.4496C140.639 16.4766 140.288 16.5825 139.983 16.7674C139.683 16.9467 139.425 17.1847 139.209 17.4812C138.999 17.7723 138.828 18.1069 138.695 18.4849C138.568 18.8574 138.479 19.2529 138.43 19.6714Z" fill="#344455"/>
<path d="M154.232 23.6278C153.645 23.5837 153.138 23.4484 152.713 23.2219C152.294 22.9908 151.961 22.6869 151.715 22.3101C151.474 21.9337 151.329 21.498 151.28 21.003C151.231 20.508 151.285 19.9747 151.443 19.4031L151.53 19.0872C151.713 18.4254 151.977 17.8439 152.322 17.3427C152.669 16.8364 153.067 16.4159 153.514 16.0811C153.962 15.7463 154.433 15.5027 154.926 15.3504C155.419 15.1981 155.902 15.1397 156.375 15.1753C156.978 15.2206 157.47 15.3599 157.852 15.5933C158.238 15.8271 158.522 16.135 158.703 16.5171C158.885 16.8942 158.977 17.331 158.978 17.8275C158.98 18.319 158.902 18.8506 158.744 19.4222L158.572 20.0464L152.272 19.5729L152.585 18.4372L157.443 18.8023L157.472 18.697C157.551 18.3345 157.57 17.9776 157.529 17.6265C157.493 17.2758 157.363 16.9794 157.138 16.7373C156.913 16.4952 156.553 16.3556 156.059 16.3185C155.732 16.2938 155.412 16.3389 155.099 16.4535C154.787 16.5632 154.497 16.741 154.227 16.9868C153.958 17.2327 153.717 17.5396 153.504 17.9074C153.291 18.2753 153.116 18.7049 152.981 19.1962L152.893 19.5121C152.787 19.8982 152.741 20.2658 152.756 20.615C152.778 20.9595 152.86 21.2676 153.002 21.5393C153.15 21.8115 153.357 22.0318 153.623 22.2002C153.895 22.3691 154.229 22.4683 154.624 22.498C155.133 22.5363 155.592 22.4685 156.001 22.2945C156.41 22.1205 156.793 21.8755 157.151 21.5595L157.84 22.2945C157.584 22.5466 157.283 22.7824 156.936 23.0019C156.589 23.2215 156.189 23.3911 155.737 23.5106C155.29 23.6306 154.788 23.6696 154.232 23.6278Z" fill="#344455"/>
<path d="M169.517 24.4064C169.6 24.2157 169.631 24.0288 169.611 23.8457C169.597 23.6589 169.482 23.4672 169.266 23.2704C169.057 23.0701 168.703 22.8571 168.203 22.6316C167.785 22.4356 167.418 22.2328 167.101 22.0233C166.789 21.815 166.542 21.5927 166.36 21.3566C166.183 21.1216 166.078 20.8692 166.045 20.5992C166.012 20.3293 166.065 20.0346 166.204 19.7153C166.337 19.4102 166.534 19.1383 166.795 18.8995C167.061 18.6618 167.372 18.4686 167.728 18.3198C168.089 18.1722 168.483 18.0822 168.911 18.0498C169.339 18.0174 169.784 18.0546 170.247 18.1612C170.907 18.3136 171.423 18.5534 171.795 18.8805C172.167 19.2076 172.397 19.5833 172.486 20.0078C172.577 20.4274 172.525 20.8589 172.332 21.3021L170.922 20.9768C171.016 20.7624 171.037 20.5392 170.988 20.3074C170.945 20.072 170.823 19.8576 170.622 19.6644C170.427 19.4723 170.143 19.3335 169.772 19.2479C169.381 19.1577 169.039 19.1416 168.745 19.1997C168.458 19.2542 168.221 19.3544 168.035 19.5002C167.853 19.6471 167.721 19.8159 167.637 20.0066C167.575 20.1496 167.544 20.2841 167.545 20.4102C167.553 20.5328 167.605 20.6575 167.7 20.7845C167.798 20.9067 167.954 21.037 168.167 21.1755C168.381 21.3139 168.663 21.4682 169.014 21.6384C169.627 21.9373 170.109 22.2372 170.458 22.5382C170.808 22.8392 171.026 23.1597 171.112 23.4996C171.199 23.8396 171.152 24.2169 170.971 24.6316C170.823 24.97 170.611 25.2622 170.336 25.5082C170.066 25.7554 169.744 25.9487 169.37 26.088C169.003 26.2237 168.599 26.3036 168.158 26.3277C167.724 26.3483 167.265 26.3028 166.783 26.1915C166.056 26.0238 165.494 25.7605 165.097 25.4013C164.701 25.0422 164.457 24.6397 164.366 24.1939C164.276 23.748 164.324 23.3106 164.511 22.8817L165.929 23.2087C165.791 23.5756 165.777 23.8898 165.887 24.1512C165.998 24.4078 166.182 24.6153 166.437 24.7739C166.694 24.9277 166.968 25.038 167.257 25.1048C167.643 25.1939 167.987 25.2207 168.288 25.1851C168.593 25.1508 168.851 25.066 169.061 24.9308C169.271 24.7957 169.423 24.6208 169.517 24.4064Z" fill="#344455"/>
</svg>
