<svg width="22" height="17" viewBox="0 0 22 17" fill="none" xmlns="http://www.w3.org/2000/svg">
<path fill-rule="evenodd" clip-rule="evenodd" d="M2 1.96337C2 1.41514 2.44772 0.970703 3 0.970703H19C19.5523 0.970703 20 1.41514 20 1.96337C20 2.51161 19.5523 2.95604 19 2.95604H3C2.44772 2.95604 2 2.51161 2 1.96337ZM0 8.91206C0 8.36383 0.447715 7.91939 1 7.91939H21C21.5523 7.91939 22 8.36383 22 8.91206C22 9.4603 21.5523 9.90473 21 9.90473H1C0.447715 9.90473 0 9.4603 0 8.91206ZM3 14.8681C2.44772 14.8681 2 15.3125 2 15.8608C2 16.409 2.44772 16.8534 3 16.8534H19C19.5523 16.8534 20 16.409 20 15.8608C20 15.3125 19.5523 14.8681 19 14.8681H3Z" fill="#344455"/>
</svg>
